<?xml version="1.0" encoding="UTF-8"?>
<svg width="752pt" height="752pt" version="1.1" viewBox="0 0 752 752" xmlns="http://www.w3.org/2000/svg">
 <g>
  <path d="m374.53 537.5c-89.543 0-162.41-72.867-162.41-162.41 0-89.543 72.867-162.37 162.41-162.37 52.652 0 102.28 25.707 132.68 68.77 3.8203 5.3711 2.5078 12.816-2.8672 16.637-5.3711 3.8203-12.816 2.5078-16.637-2.8672-25.949-36.73-68.293-58.66-113.18-58.66-76.371 0-138.53 62.121-138.53 138.53s62.121 138.53 138.53 138.53c76.41 0 138.53-62.121 138.53-138.53 0-10.547-1.1953-21.051-3.543-31.242-1.4727-6.4062 2.5469-12.816 8.9531-14.328 6.3672-1.4727 12.816 2.5078 14.328 8.9531 2.7461 11.938 4.1406 24.234 4.1406 36.574 0 89.543-72.867 162.41-162.41 162.41z"/>
  <path d="m375.96 396.77c-37.926 0-68.77-30.844-68.77-68.77 0-37.926 30.844-68.77 68.77-68.77 37.926 0 68.77 30.844 68.77 68.77 0 37.926-30.844 68.77-68.77 68.77zm0-113.62c-24.754 0-44.891 20.137-44.891 44.891 0 24.754 20.137 44.891 44.891 44.891 24.754 0 44.891-20.137 44.891-44.891 0-24.754-20.137-44.891-44.891-44.891z"/>
  <path d="m266.68 491.97c-0.55859 0-1.0742 0-1.6328-0.12109-6.5273-0.875-11.102-6.9258-10.188-13.453 8.2383-60.133 60.332-105.5 121.1-105.5 60.77 0 110.83 42.98 120.62 102.16 1.0742 6.4883-3.3438 12.656-9.8281 13.73-6.4883 1.0742-12.656-3.3047-13.73-9.8281-7.8789-47.637-48.711-82.18-97.062-82.18-48.352 0-90.816 36.492-97.461 84.887-0.83594 5.9688-5.9297 10.309-11.82 10.309z"/>
 </g>
</svg>
